# xmcd
#
# Track frame offsets: 
#        150
#        17161
#        39468
#        57664
#        75695
#        89674
#        109025
#        130864
#        150744
#        171779
#        193172
#        215792
#        237331
#        258668
#        280779
#        300485
#        317415
#
# Disc length: 4509 seconds
#
# Revision: 0
# Processed by: cddbd v1.5.2PL0 Copyright (c) Steve Scherf et al.
# Submitted via: ExactAudioCopyFreeDBPlugin 1.0
#
DISCID=f1119b11
DTITLE=Various Artist - Super Blues Collection 2012
DYEAR=2012
DGENRE=Blues
TTITLE0=Kentucky Headhunters - Walk Softly on This Heart of Mine
TTITLE1=Lazy Poker Blues Band and Jon McDonald - All Your Love
TTITLE2=Kentusky Thunder - Love Is A Gift
TTITLE3=Rob Tognoni Band - The Good Die Young
TTITLE4=Tony Galla - Desire
TTITLE5=Garry Brooker - Give Me Something To Remember You By
TTITLE6=Bobby Messano and NBO - Sea Of Hope
TTITLE7=The Mick Clarke Band - Cheap
TTITLE8=The Boneshakers - Let's Straighten It Out
TTITLE9=Pat Boyack and The Prowlers - I Know It's Over
TTITLE10=Sherman Robertson - In The Here And Now
TTITLE11=Gary Wright - Blind Feeling
TTITLE12=Glenn Hughes - Lay My Body Down
TTITLE13=John Hiatt - Damn This Town
TTITLE14=Atlanta Rhythm Section - So Into You
TTITLE15=Tony Sarno - The Hard Way
TTITLE16=Dana Gilespie - Where The Blues Begins
EXTD=
EXTT0=
EXTT1=
EXTT2=
EXTT3=
EXTT4=
EXTT5=
EXTT6=
EXTT7=
EXTT8=
EXTT9=
EXTT10=
EXTT11=
EXTT12=
EXTT13=
EXTT14=
EXTT15=
EXTT16=
PLAYORDER=
